<?xml version="1.0" encoding="utf-8"?>
<svg version="1.1" xmlns="http://www.w3.org/2000/svg" xmlns:xlink="http://www.w3.org/1999/xlink" x="0px" y="0px"
	 width="256px" height="256px" viewBox="0 0 256 256" enable-background="new 0 0 256 256" xml:space="preserve">
<g>
	<path fill="#2A2F51" d="M128,252C59.626,252,4,196.374,4,128S59.626,4,128,4s124,55.626,124,124S196.374,252,128,252z"/>
	<path fill="#FFBC00" d="M128,8c32.053,0,62.188,12.482,84.854,35.147C235.518,65.812,248,95.947,248,128
		c0,32.053-12.482,62.188-35.146,84.854C190.188,235.518,160.053,248,128,248c-32.053,0-62.188-12.482-84.853-35.146
		C20.482,190.188,8,160.053,8,128c0-32.053,12.482-62.188,35.147-84.853S95.947,8,128,8 M128,0C57.308,0,0,57.308,0,128
		c0,70.691,57.308,128,128,128c70.691,0,128-57.309,128-128C256,57.308,198.691,0,128,0L128,0z"/>
</g>
<g>
	<path fill="#FF0000" d="M94.395,192.288c-4.81,4.808-16.385,12.11-30.921,11.562c6.766-9.945-15.482,2.201-15.483,2.2
		c0,0-2.235-33.521,13.76-46.405c9.417-7.588,22.79-8.176,31.805,0.84C102.568,169.498,102.945,183.736,94.395,192.288z"/>
	<path fill="#FFE12F" d="M93.021,184.043c-2.77,7.725-11.319,10.055-20.84,11.027c4.274-11.271-9.911,2.914-18.459,1.748
		c9.715-10.491-0.049-19.479,13.006-32.535c6.031-6.03,16.075-5.768,22.434,0.594C95.52,171.234,95.487,177.163,93.021,184.043z"/>
</g>
<g>
	<path fill="#515151" d="M198.318,123.921c23.129-31.297,33.428-66.007,29.658-91.897c-25.893-3.77-60.603,6.528-91.898,29.657
		c-8.806,6.508-16.708,13.574-23.62,20.939c-18.1-7.045-43.358-10.466-48.948-7.779C55.981,78.459,24.898,115.626,5,148.039
		c13.067-3.107,44.924-22.109,75.463-4.459c-0.105,0.97-0.194,1.936-0.252,2.891l-0.013-0.014l-8.206,4.993l36.557,36.558
		l4.994-8.206l-0.013-0.013c0.967-0.059,1.943-0.148,2.924-0.257c-0.011,0.001-0.023,0.004-0.034,0.005
		c17.648,30.539-1.352,62.396-4.459,75.463c32.413-19.896,69.58-50.98,73.198-58.511c2.687-5.591-0.734-30.849-7.779-48.948
		C184.745,140.629,191.812,132.729,198.318,123.921z M81.009,139.71c-0.027,0.16-0.053,0.321-0.079,0.481
		C80.956,140.031,80.981,139.87,81.009,139.71z M102.811,93.919c-0.008,0.01-0.015,0.02-0.023,0.029
		C102.795,93.938,102.803,93.929,102.811,93.919z M97.271,101.595c-0.023,0.035-0.046,0.069-0.069,0.104
		C97.226,101.664,97.248,101.629,97.271,101.595z M90.364,113.159c-0.04,0.076-0.08,0.151-0.12,0.227
		C90.284,113.311,90.324,113.235,90.364,113.159z M86.689,120.881c-0.051,0.119-0.1,0.237-0.15,0.356
		C86.589,121.119,86.639,121,86.689,120.881z M83.763,128.643c-0.024,0.072-0.046,0.146-0.069,0.219
		C83.717,128.788,83.739,128.715,83.763,128.643z M82.677,132.257c-0.037,0.132-0.075,0.265-0.111,0.396
		C82.603,132.521,82.641,132.389,82.677,132.257z M120.306,178.988c-0.172,0.029-0.343,0.057-0.514,0.085
		C119.963,179.045,120.134,179.018,120.306,178.988z M131.363,176.234c-0.079,0.025-0.157,0.05-0.235,0.074
		C131.206,176.284,131.284,176.261,131.363,176.234z M127.754,177.318c-0.139,0.039-0.277,0.08-0.416,0.117
		C127.477,177.398,127.616,177.357,127.754,177.318z M166.062,157.204c0.002-0.002,0.004-0.003,0.006-0.005
		C166.064,157.201,166.062,157.202,166.062,157.204z M138.762,173.461c0.119-0.05,0.237-0.1,0.356-0.15
		C138.999,173.361,138.881,173.411,138.762,173.461z M146.62,169.752c0.069-0.036,0.142-0.074,0.211-0.111
		C146.762,169.678,146.689,169.716,146.62,169.752z M158.314,162.789c0.025-0.02,0.054-0.036,0.08-0.055
		C158.368,162.753,158.341,162.771,158.314,162.789z"/>
</g>
<polygon fill="#BBBBBB" points="104.549,186.008 67.992,149.45 76.198,144.457 109.543,177.802 "/>
<path fill="#FF8700" d="M112.42,177.537c17.648,30.539-1.352,62.396-4.459,75.463c32.413-19.896,69.58-50.98,73.198-58.511
	c2.687-5.591-0.734-30.849-7.779-48.948C153.613,164.09,131.673,175.439,112.42,177.537z"/>
<path fill="#FF8700" d="M108.458,80.62c-18.1-7.045-43.358-10.466-48.948-7.779C51.981,76.459,20.898,113.626,1,146.039
	c13.067-3.107,44.924-22.109,75.463-4.459C78.56,122.326,89.91,100.386,108.458,80.62z"/>
<g>
	<path fill="#FFFFFF" d="M223.977,30.024c-25.892-3.77-60.602,6.528-91.897,29.657c-33.629,24.851-54.219,57.795-55.868,84.79
		l33.319,33.318c26.994-1.648,59.937-22.239,84.789-55.868C217.447,90.624,227.746,55.914,223.977,30.024z"/>
</g>
<path fill="#FF8700" d="M140.414,138.676c-0.838,0.247-1.512,0.346-2.391,0.344c-7.205,0-17.786-25.149-17.787-33.523
	c0-3.081,0.732-4.107,1.761-4.991c-8.818,1.026-19.401,4.258-22.782,8.369c-0.729,1.027-1.176,2.647-1.176,4.699
	c0,13.066,13.961,42.72,23.812,42.719C126.411,156.292,134.094,148.814,140.414,138.676 M135.814,99.625
	c9.113,0,18.227,1.467,18.228,6.608c-0.001,10.425-6.618,23.055-9.993,23.055c-6.027,0.001-13.525-16.741-13.525-25.111
	C130.523,100.354,131.992,99.625,135.814,99.625"/>
<g>
	<path fill="#00CCFF" d="M179.139,90.862c-4.275,0-8.293-1.664-11.314-4.685c-3.021-3.022-4.686-7.041-4.686-11.314
		c0-8.822,7.178-16,16-16s16,7.178,16,16S187.961,90.862,179.139,90.862z"/>
	<path fill="#686868" d="M179.139,60.863c7.72,0,14,6.28,14,14c0,7.719-6.28,14-14,14c-3.741,0-7.257-1.456-9.9-4.099
		c-2.644-2.645-4.1-6.161-4.1-9.9C165.139,67.143,171.419,60.863,179.139,60.863 M179.139,56.863c-9.925,0-18,8.075-18,18
		c0,4.81,1.873,9.33,5.271,12.729s7.918,5.271,12.729,5.271c9.925,0,18-8.075,18-18C197.139,64.938,189.063,56.863,179.139,56.863
		L179.139,56.863z"/>
</g>
<circle fill="#FFFFFF" cx="109.5" cy="51.5" r="3"/>
<circle fill="#FFFFFF" cx="236" cy="120.5" r="3"/>
<circle fill="#FFFFFF" cx="184.5" cy="218" r="3"/>
<circle fill="#FFFFFF" cx="210" cy="145.999" r="3"/>
<circle fill="#FFFFFF" cx="100.167" cy="219.166" r="3"/>
<circle fill="#FFFFFF" cx="30.5" cy="155.166" r="3"/>
<circle fill="#FFFFFF" cx="28.5" cy="78.833" r="3"/>
<path fill="#FFFFFF" d="M84.5,42.5c3.897,0,12.667-9.084,12.667-9.084s-9.084,8.77-9.084,12.667s9.084,12.667,9.084,12.667
	s-8.77-9.084-12.667-9.084S71.833,58.75,71.833,58.75s9.084-8.77,9.084-12.667s-9.084-12.667-9.084-12.667S80.603,42.5,84.5,42.5z"
	/>
<path fill="#FFFFFF" d="M213.834,166.251c3.896,0,12.666-9.084,12.666-9.084s-9.084,8.771-9.084,12.667S226.5,182.5,226.5,182.5
	s-8.77-9.084-12.666-9.084s-12.667,9.084-12.667,9.084s9.084-8.77,9.084-12.666s-9.084-12.667-9.084-12.667
	S209.938,166.251,213.834,166.251z"/>
<path fill="#FFFFFF" d="M131.438,27.564c1.744,0,5.666-4.064,5.666-4.064s-4.063,3.923-4.063,5.667c0,1.743,4.063,5.666,4.063,5.666
	s-3.922-4.064-5.666-4.064s-5.667,4.064-5.667,4.064s4.063-3.923,4.063-5.666c0-1.744-4.063-5.667-4.063-5.667
	S129.693,27.564,131.438,27.564z"/>
</svg>
