<?xml version="1.0" encoding="utf-8"?>
<svg version="1.1" id="Ebene_1" xmlns="http://www.w3.org/2000/svg" xmlns:xlink="http://www.w3.org/1999/xlink" x="0px" y="0px"
	 width="256px" height="256px" viewBox="0 0 256 256" enable-background="new 0 0 256 256" xml:space="preserve">
<g>
	<path fill="#FF8700" d="M193.424,176.418c-3.797,1.121-6.827,1.539-10.8,1.539c-32.552,0-80.345-113.622-80.345-151.44
		c0-13.919,3.296-18.565,7.954-22.552C70.398,8.61,22.596,23.214,7.312,41.779C4.008,46.431,2,53.72,2,63.008
		C2,122.042,65.078,256,109.573,256C130.164,256.003,164.867,222.203,193.424,176.418"/>
	<path fill="#FF8700" d="M172.646,0C213.809,0,255,6.629,255,29.842c0,47.09-29.894,104.155-45.157,104.155
		c-27.225,0-61.089-75.63-61.089-113.447C148.754,3.306,155.393,0,172.646,0"/>
</g>
</svg>
